<svg width="1178" height="761" viewBox="0 0 1178 761" fill="none" xmlns="http://www.w3.org/2000/svg">
<path d="M642.322 11.7425C560.247 20.9788 491.006 33.1554 436.193 48.4321C371.517 66.4893 323.695 89.7559 299.146 119.031C268.053 156.168 272.522 205.418 333.911 270.04C373.464 311.619 437.726 360.901 534.772 419.387C591.819 453.744 660.806 491.68 743.806 533.578C838.012 581.134 951.34 634.379 1087.33 694.016C1031.88 730.769 971.324 770.942 904.924 814.983C831.755 863.497 750.734 917.189 660.582 976.986C578.476 916.295 506.871 860.972 444.366 810.412C387.702 764.582 338.125 722.364 294.837 683.373C218.668 614.788 160.759 555.247 117.407 503.249C47.1117 418.876 12.826 351.377 3.08942 296.886C-4.76372 252.814 3.12134 215.836 22.3073 184.708C38.5882 158.341 63.3926 135.618 94.5498 116.059C145.914 83.8753 217.135 58.851 301.636 39.867C372.155 24.047 455.379 11.5827 549.808 2.31445C579.593 5.31865 610.399 8.48264 642.322 11.7425Z" fill="url(#paint0_linear_1554_4726)"/>
<path d="M642.322 10.4961C560.247 18.5179 491.006 29.0965 436.193 42.3598C371.517 58.02 323.695 78.2504 299.146 103.658C268.053 135.905 272.522 178.667 333.911 234.788C373.464 270.871 437.726 313.697 534.772 364.48C591.819 394.299 660.806 427.249 743.806 463.651C838.012 504.943 951.34 551.156 1087.33 602.963C1031.88 634.89 971.324 669.758 904.924 707.982C831.755 750.105 750.734 796.734 660.582 848.668C578.476 795.967 506.871 747.932 444.366 704.019C387.702 664.229 338.125 627.54 294.837 593.695C218.668 534.122 160.759 482.411 117.407 437.284C47.1117 364.001 12.826 305.387 3.08942 258.087C-4.76372 219.831 3.12134 187.712 22.3073 160.674C38.5882 137.791 63.3926 118.04 94.5498 101.07C145.914 73.1049 217.135 51.3724 301.636 34.8812C372.155 21.1386 455.379 10.3363 549.808 2.25049C579.593 4.90313 610.399 7.65166 642.322 10.4961Z" fill="url(#paint1_linear_1554_4726)"/>
<path d="M927.845 903.83C924.301 906.483 920.758 909.168 917.182 911.852C812.953 853.558 721.62 800.473 641.556 751.99C569.25 708.238 505.626 667.937 449.665 630.768C351.756 565.73 275.906 509.289 217.838 460.104C167.878 417.757 130.368 380.173 103.169 346.679C79.2584 317.212 63.0414 290.622 53.4005 266.588C37.0239 225.744 39.2904 191.419 55.5713 162.56C69.2664 138.334 93.1131 117.401 125.1 99.3758C177.167 70.0688 251.613 48.1126 338.827 31.941C411.612 18.4541 497.454 8.16311 593.128 0.68457C593.735 0.748489 594.373 0.812418 594.98 0.844378C496.337 8.54664 410.335 19.1572 338.316 32.804C251.9 49.1992 180.2 71.0915 130.527 99.4397C100.232 116.73 77.1834 136.96 63.7437 160.482C47.8139 188.383 45.0366 221.749 60.5833 261.698C80.0246 311.523 128.867 373.653 221.158 451.826C278.588 500.437 354.118 556.43 452.474 621.244C508.787 658.349 573.049 698.65 646.377 742.562C727.749 791.301 820.933 844.833 927.845 903.83Z" fill="url(#paint2_linear_1554_4726)"/>
<path d="M657.869 6.75692C568.164 14.4272 492.282 24.878 431.66 38.2371C359.673 54.089 305.116 74.9267 275.076 101.485C236.481 135.714 235.874 182.119 299.178 244.217C319.003 263.648 345.244 284.869 379.018 308.072C416.656 333.927 463.903 362.435 522.482 393.915C588.787 429.55 670.351 469.372 770.015 513.891C825.466 538.66 886.791 564.995 954.564 593.023C1027.89 623.353 1109.07 655.792 1198.97 690.532C1196.7 692.194 1194.47 693.888 1192.17 695.55C1104.25 661.289 1024.54 629.17 952.234 599.064C885.322 571.195 824.572 544.956 769.441 520.251C670.191 475.732 588.404 435.782 521.492 399.86C462.338 368.124 414.294 339.264 375.794 313.026C341.285 289.471 314.214 267.867 293.719 248.052C228.276 184.772 227.414 137.056 268.659 101.357C300.423 73.9359 357.726 53.0024 430.83 37.3422C492.474 24.1429 568.611 13.9798 655.858 6.5332C656.56 6.62908 657.198 6.693 657.869 6.75692Z" fill="url(#paint3_linear_1554_4726)"/>
<path d="M600.854 5.92592C597.917 6.1816 594.98 6.46923 592.043 6.72491C591.373 6.66099 590.702 6.59706 590.032 6.5651C592.969 6.30943 595.906 6.02179 598.875 5.76611C599.513 5.79807 600.183 5.862 600.854 5.92592ZM783.423 646.013C780.263 647.419 777.071 648.793 773.878 650.199C731.165 628.754 690.718 607.917 653.495 588.23C656.72 587.079 659.944 585.928 663.168 584.81C700.391 604.241 740.774 624.823 783.423 646.013ZM572.091 8.64248C565.451 9.31363 558.811 9.98478 552.298 10.6879C551.596 10.624 550.862 10.5601 550.16 10.5281C556.672 9.825 563.344 9.15385 570.016 8.4827C570.718 8.51466 571.421 8.57856 572.091 8.64248ZM563.344 531.214C560.152 532.14 556.927 533.099 553.703 534.026C524.27 517.567 496.528 501.523 471.054 486.374C474.214 485.607 477.406 484.84 480.567 484.073C506.073 499.062 533.879 514.914 563.344 531.214ZM532.729 12.8292C526.217 13.5643 519.673 14.3313 513.288 15.1303C512.522 15.0664 511.788 15.0024 511.022 14.9705C517.438 14.2035 523.982 13.4045 530.527 12.6694C531.261 12.7014 531.995 12.7653 532.729 12.8292ZM411.9 442.27C408.803 442.909 405.738 443.549 402.642 444.188C382.498 431.308 363.472 418.684 346.074 406.667C349.074 406.124 352.075 405.612 355.076 405.101C372.57 417.022 391.66 429.518 411.9 442.27ZM494.038 17.5592C487.654 18.3902 481.237 19.2531 475.012 20.1479C474.214 20.084 473.416 20.0201 472.618 19.9881C478.875 19.0933 485.323 18.2304 491.74 17.3994C492.506 17.4314 493.272 17.4953 494.038 17.5592ZM308.149 371.831C305.244 372.279 302.339 372.694 299.434 373.142C285.739 362.819 272.937 352.687 261.285 343.004C264.095 342.652 266.872 342.269 269.681 341.917C281.429 351.505 294.358 361.572 308.149 371.831ZM456.177 22.8965C449.952 23.8233 443.695 24.814 437.566 25.8048C436.704 25.7409 435.874 25.7089 435.012 25.645C441.141 24.6542 447.43 23.6635 453.687 22.7367C454.517 22.7686 455.347 22.8325 456.177 22.8965ZM238.428 314.911C235.747 315.199 233.065 315.518 230.352 315.806C221.317 307.369 213.017 299.091 205.611 291.197C208.197 290.941 210.783 290.718 213.368 290.462C220.87 298.292 229.298 306.538 238.428 314.911ZM419.21 28.9049C413.113 29.9595 407.015 31.0781 401.11 32.1967C400.216 32.1328 399.29 32.1008 398.396 32.0369C404.334 30.9183 410.463 29.8317 416.592 28.7451C417.454 28.777 418.348 28.841 419.21 28.9049ZM193.608 268.218C191.15 268.41 188.66 268.634 186.17 268.825C180.615 261.858 175.635 255.019 171.325 248.435C173.688 248.275 176.082 248.116 178.444 247.924C182.85 254.476 187.957 261.315 193.608 268.218ZM383.296 35.6803C377.39 36.8948 371.485 38.1412 365.77 39.3876C364.813 39.3237 363.823 39.2917 362.865 39.2278C368.612 37.9814 374.549 36.735 380.487 35.5205C381.413 35.5525 382.371 35.6164 383.296 35.6803ZM167.303 229.419C165.036 229.547 162.77 229.675 160.471 229.835C157.503 224.018 155.044 218.265 153.097 212.768C155.268 212.672 157.471 212.545 159.641 212.449C161.685 217.914 164.238 223.635 167.303 229.419ZM348.596 43.3186C342.913 44.6609 337.231 46.0672 331.74 47.5053C330.687 47.4414 329.665 47.4095 328.612 47.3455C334.134 45.9393 339.849 44.5331 345.563 43.1588C346.584 43.2228 347.574 43.2547 348.596 43.3186ZM154.981 196.852C152.906 196.948 150.799 197.012 148.724 197.108C147.734 192.186 147.191 187.329 147.032 182.662C149.043 182.599 151.022 182.535 153.033 182.471C153.289 187.105 153.927 191.931 154.981 196.852ZM315.268 51.9477C309.841 53.4818 304.414 55.0798 299.21 56.6777C298.093 56.6458 296.976 56.5819 295.858 56.5499C301.094 54.9519 306.553 53.3539 312.012 51.8199C313.129 51.8518 314.182 51.8838 315.268 51.9477ZM153.416 169.207C151.501 169.239 149.586 169.303 147.67 169.335C148.213 165.149 149.139 161.026 150.352 157.031C152.203 156.999 154.023 156.967 155.875 156.935C154.725 160.898 153.895 165.021 153.416 169.207ZM283.632 61.6954C278.492 63.4212 273.416 65.2429 268.532 67.0646C267.351 67.0326 266.138 66.9687 264.957 66.9368C269.873 65.1151 274.98 63.3253 280.184 61.5676C281.333 61.5995 282.482 61.6315 283.632 61.6954ZM160.152 145.557C158.396 145.589 156.641 145.589 154.853 145.621C156.609 142.01 158.684 138.462 160.982 135.043C162.674 135.043 164.366 135.011 166.058 135.011C163.823 138.43 161.844 141.978 160.152 145.557ZM254.007 72.7534C249.25 74.7349 244.558 76.7803 240.056 78.8257C238.779 78.7938 237.471 78.7618 236.194 78.7299C240.727 76.6525 245.451 74.6071 250.272 72.6256C251.517 72.6575 252.762 72.7215 254.007 72.7534ZM173.4 125.231C171.772 125.231 170.144 125.231 168.516 125.231C171.198 122.131 174.167 119.063 177.327 116.091C178.891 116.091 180.455 116.091 182.02 116.123C178.923 119.063 176.018 122.131 173.4 125.231ZM226.808 85.3135C222.467 87.5507 218.253 89.8837 214.294 92.2487C212.921 92.2168 211.517 92.1849 210.144 92.1849C214.167 89.8198 218.444 87.4868 222.818 85.2496C224.127 85.2496 225.467 85.2816 226.808 85.3135ZM191.788 107.589C190.288 107.589 188.787 107.557 187.287 107.557C190.352 105.16 193.608 102.763 196.992 100.462C197.407 100.175 197.822 99.8871 198.269 99.5995C199.705 99.6314 201.142 99.6314 202.61 99.6634C202.195 99.951 201.78 100.239 201.365 100.526C198.013 102.827 194.789 105.192 191.788 107.589Z" fill="url(#paint4_linear_1554_4726)"/>
<path d="M626.361 3.81677C621.189 4.23225 618.667 4.42401 613.591 4.83948C612.953 4.77557 612.314 4.71163 611.676 4.64771C616.752 4.23223 619.274 4.04048 624.477 3.625C625.116 3.72088 625.754 3.75286 626.361 3.81677Z" fill="url(#paint5_linear_1554_4726)"/>
<defs>
<linearGradient id="paint0_linear_1554_4726" x1="776.478" y1="214.193" x2="175.138" y2="814.851" gradientUnits="userSpaceOnUse">
<stop stop-color="#696969"/>
<stop offset="0.0114" stop-color="#898989"/>
<stop offset="0.1674" stop-color="#5F5F5F"/>
<stop offset="0.3268" stop-color="#3D3D3D"/>
<stop offset="0.4882" stop-color="#222222"/>
<stop offset="0.6522" stop-color="#3B3B3B"/>
<stop offset="0.8206" stop-color="#212121"/>
<stop offset="1" stop-color="#3A3A3A"/>
</linearGradient>
<linearGradient id="paint1_linear_1554_4726" x1="75.1634" y1="425.449" x2="1162.45" y2="425.449" gradientUnits="userSpaceOnUse">
<stop stop-color="#333333"/>
<stop offset="0.1718" stop-color="#4A4A4B"/>
<stop offset="0.5353" stop-color="#838389"/>
<stop offset="1" stop-color="#D5D5E0"/>
</linearGradient>
<linearGradient id="paint2_linear_1554_4726" x1="576.219" y1="-2.18349" x2="526.931" y2="297.899" gradientUnits="userSpaceOnUse">
<stop stop-color="#333333"/>
<stop offset="0.1484" stop-color="#4A4A4B"/>
<stop offset="0.4625" stop-color="#848489"/>
<stop offset="0.9136" stop-color="#E1E1EB"/>
<stop offset="1" stop-color="#F4F4FF"/>
</linearGradient>
<linearGradient id="paint3_linear_1554_4726" x1="783.626" y1="31.036" x2="734.338" y2="331.119" gradientUnits="userSpaceOnUse">
<stop stop-color="#333333"/>
<stop offset="0.1484" stop-color="#4A4A4B"/>
<stop offset="0.4625" stop-color="#848489"/>
<stop offset="0.9136" stop-color="#E1E1EB"/>
<stop offset="1" stop-color="#F4F4FF"/>
</linearGradient>
<linearGradient id="paint4_linear_1554_4726" x1="533.96" y1="-9.97142" x2="484.671" y2="290.112" gradientUnits="userSpaceOnUse">
<stop stop-color="#333333"/>
<stop offset="0.1484" stop-color="#4A4A4B"/>
<stop offset="0.4625" stop-color="#848489"/>
<stop offset="0.9136" stop-color="#E1E1EB"/>
<stop offset="1" stop-color="#F4F4FF"/>
</linearGradient>
<linearGradient id="paint5_linear_1554_4726" x1="619.074" y1="4.00884" x2="569.785" y2="304.097" gradientUnits="userSpaceOnUse">
<stop stop-color="#333333"/>
<stop offset="0.1484" stop-color="#4A4A4B"/>
<stop offset="0.4625" stop-color="#848489"/>
<stop offset="0.9136" stop-color="#E1E1EB"/>
<stop offset="1" stop-color="#F4F4FF"/>
</linearGradient>
</defs>
</svg>
