    <svg width="1448" height="1058" viewBox="0 0 1448 1058" fill="none" xmlns="http://www.w3.org/2000/svg">
                  <g clip-path="url(#clip0_616_3704)">
                  <path d="M845.323 309.105C763.248 318.342 694.006 330.518 639.194 345.795C574.517 363.852 526.696 387.119 502.147 416.394C471.054 453.531 475.523 502.78 536.911 567.403C576.464 608.982 640.726 658.264 737.773 716.75C794.82 751.106 863.806 789.042 946.807 830.941C1041.01 878.497 1154.34 931.742 1290.33 991.378C1234.88 1028.13 1174.32 1068.31 1107.92 1112.35C1034.76 1160.86 953.734 1214.55 863.583 1274.35C781.476 1213.66 709.872 1158.34 647.366 1107.78C590.702 1061.95 541.125 1019.73 497.837 980.736C421.668 912.151 363.759 852.61 320.407 800.612C250.112 716.238 215.827 648.74 206.09 594.249C198.237 550.176 206.122 513.199 225.308 482.071C241.589 455.704 266.393 432.981 297.55 413.421C348.915 381.238 420.136 356.214 504.637 337.23C575.156 321.41 658.38 308.946 752.809 299.677C782.593 302.681 813.399 305.845 845.323 309.105Z" fill="url(#paint0_linear_616_3704)"/>
                  <path d="M845.323 307.859C763.248 315.881 694.006 326.459 639.194 339.723C574.517 355.383 526.696 375.613 502.147 401.021C471.054 433.268 475.523 476.03 536.911 532.151C576.464 568.234 640.726 611.059 737.773 661.843C794.82 691.661 863.806 724.612 946.807 761.014C1041.01 802.306 1154.34 848.519 1290.33 900.326C1234.88 932.253 1174.32 967.121 1107.92 1005.34C1034.76 1047.47 953.734 1094.1 863.583 1146.03C781.476 1093.33 709.872 1045.29 647.366 1001.38C590.702 961.592 541.125 924.902 497.837 891.057C421.668 831.485 363.759 779.774 320.407 734.647C250.112 661.364 215.827 602.75 206.09 555.45C198.237 517.194 206.122 485.075 225.308 458.037C241.589 435.154 266.393 415.403 297.55 398.432C348.915 370.468 420.136 348.735 504.637 332.244C575.156 318.501 658.38 307.699 752.809 299.613C782.593 302.266 813.399 305.014 845.323 307.859Z" fill="url(#paint1_linear_616_3704)"/>
                  <path d="M1130.85 1201.19C1127.3 1203.85 1123.76 1206.53 1120.18 1209.22C1015.95 1150.92 924.62 1097.84 844.557 1049.35C772.25 1005.6 708.627 965.3 652.665 928.131C554.757 863.093 478.907 806.652 420.838 757.466C370.878 715.12 333.368 677.535 306.17 644.042C282.259 614.575 266.042 587.985 256.401 563.951C240.024 523.107 242.291 488.782 258.572 459.923C272.267 435.697 296.114 414.764 328.101 396.739C380.168 367.432 454.613 345.475 541.828 329.304C614.613 315.817 700.455 305.526 796.129 298.047C796.736 298.111 797.374 298.175 797.981 298.207C699.337 305.909 613.336 316.52 541.317 330.167C454.9 346.562 383.201 368.454 333.528 396.802C303.233 414.093 280.184 434.323 266.744 457.845C250.815 485.746 248.037 519.112 263.584 559.061C283.025 608.886 331.868 671.016 424.158 749.189C481.588 797.799 557.119 853.793 655.475 918.607C711.788 955.712 776.049 996.013 849.377 1039.93C930.75 1088.66 1023.93 1142.2 1130.85 1201.19Z" fill="url(#paint2_linear_616_3704)"/>
                  <path d="M860.869 304.12C771.164 311.79 695.282 322.241 634.66 335.6C562.673 351.452 508.116 372.289 478.076 398.848C439.481 433.077 438.874 479.482 502.178 541.579C522.003 561.011 548.244 582.232 582.019 605.435C619.656 631.29 666.903 659.798 725.482 691.278C791.787 726.913 873.351 766.735 973.016 811.254C1028.47 836.023 1089.79 862.358 1157.56 890.386C1230.89 920.716 1312.07 953.155 1401.97 987.895C1399.7 989.557 1397.47 991.251 1395.17 992.913C1307.25 958.652 1227.54 926.532 1155.23 896.427C1088.32 868.558 1027.57 842.319 972.441 817.614C873.191 773.095 791.404 733.145 724.492 697.222C665.338 665.487 617.294 636.627 578.794 610.388C544.285 586.834 517.214 565.229 496.719 545.414C431.277 482.135 430.415 434.419 471.66 398.72C503.423 371.299 560.726 350.365 633.83 334.705C695.474 321.506 771.611 311.343 858.858 303.896C859.56 303.992 860.198 304.056 860.869 304.12Z" fill="url(#paint3_linear_616_3704)"/>
                  <path d="M803.855 303.289C800.918 303.544 797.981 303.832 795.044 304.088C794.374 304.024 793.704 303.96 793.033 303.928C795.97 303.672 798.907 303.385 801.876 303.129C802.514 303.161 803.185 303.225 803.855 303.289ZM986.425 943.375C983.264 944.781 980.072 946.156 976.88 947.562C934.166 926.117 893.719 905.279 856.497 885.592C859.721 884.442 862.945 883.291 866.17 882.173C903.392 901.604 943.775 922.186 986.425 943.375ZM775.092 306.005C768.452 306.676 761.812 307.348 755.3 308.051C754.598 307.987 753.863 307.923 753.161 307.891C759.673 307.188 766.345 306.517 773.017 305.845C773.72 305.877 774.422 305.941 775.092 306.005ZM766.345 828.576C763.153 829.503 759.929 830.462 756.705 831.389C727.271 814.93 699.53 798.886 674.055 783.737C677.215 782.97 680.408 782.203 683.568 781.436C709.075 796.425 736.88 812.277 766.345 828.576ZM735.731 310.192C729.219 310.927 722.674 311.694 716.29 312.493C715.523 312.429 714.789 312.365 714.023 312.333C720.44 311.566 726.984 310.767 733.528 310.032C734.262 310.064 734.997 310.128 735.731 310.192ZM614.901 739.633C611.805 740.272 608.74 740.911 605.643 741.551C585.5 728.671 566.473 716.047 549.075 704.03C552.076 703.487 555.077 702.975 558.078 702.464C575.572 714.385 594.662 726.881 614.901 739.633ZM697.04 314.922C690.655 315.753 684.239 316.616 678.013 317.511C677.215 317.447 676.417 317.383 675.619 317.351C681.876 316.456 688.325 315.593 694.741 314.762C695.507 314.794 696.274 314.858 697.04 314.922ZM511.15 669.194C508.245 669.641 505.34 670.057 502.435 670.504C488.74 660.181 475.939 650.05 464.287 640.366C467.096 640.015 469.873 639.631 472.683 639.28C484.43 648.868 497.359 658.935 511.15 669.194ZM659.179 320.259C652.954 321.186 646.697 322.177 640.567 323.168C639.706 323.104 638.875 323.072 638.014 323.008C644.143 322.017 650.432 321.026 656.689 320.099C657.519 320.131 658.349 320.195 659.179 320.259ZM441.43 612.274C438.748 612.562 436.067 612.881 433.353 613.169C424.319 604.732 416.019 596.454 408.612 588.56C411.198 588.304 413.784 588.081 416.37 587.825C423.872 595.655 432.3 603.901 441.43 612.274ZM622.212 326.268C616.114 327.322 610.017 328.441 604.111 329.559C603.217 329.496 602.291 329.464 601.397 329.4C607.335 328.281 613.465 327.194 619.594 326.108C620.456 326.14 621.35 326.204 622.212 326.268ZM396.609 565.581C394.151 565.773 391.661 565.996 389.171 566.188C383.617 559.221 378.636 552.382 374.327 545.798C376.689 545.638 379.083 545.478 381.446 545.287C385.851 551.838 390.959 558.678 396.609 565.581ZM586.298 333.043C580.392 334.258 574.486 335.504 568.772 336.75C567.814 336.686 566.825 336.655 565.867 336.591C571.613 335.344 577.551 334.098 583.488 332.883C584.414 332.915 585.372 332.979 586.298 333.043ZM370.305 526.782C368.038 526.91 365.771 527.038 363.473 527.198C360.504 521.381 358.046 515.628 356.099 510.131C358.269 510.035 360.472 509.907 362.643 509.812C364.686 515.277 367.24 520.997 370.305 526.782ZM551.597 340.681C545.915 342.024 540.232 343.43 534.742 344.868C533.688 344.804 532.667 344.772 531.613 344.708C537.136 343.302 542.85 341.896 548.564 340.522C549.586 340.586 550.576 340.617 551.597 340.681ZM357.982 494.215C355.907 494.311 353.8 494.375 351.725 494.471C350.736 489.549 350.193 484.691 350.033 480.025C352.044 479.961 354.024 479.897 356.035 479.833C356.29 484.468 356.929 489.294 357.982 494.215ZM518.269 349.311C512.842 350.845 507.415 352.443 502.212 354.041C501.094 354.009 499.977 353.945 498.86 353.913C504.095 352.315 509.554 350.717 515.013 349.183C516.13 349.215 517.184 349.247 518.269 349.311ZM356.418 466.57C354.502 466.602 352.587 466.666 350.672 466.698C351.214 462.511 352.14 458.389 353.353 454.394C355.205 454.362 357.024 454.33 358.876 454.298C357.727 458.261 356.897 462.384 356.418 466.57ZM486.633 359.058C481.493 360.784 476.418 362.606 471.533 364.427C470.352 364.395 469.139 364.332 467.958 364.3C472.874 362.478 477.982 360.688 483.185 358.93C484.335 358.962 485.484 358.994 486.633 359.058ZM363.154 442.92C361.398 442.952 359.642 442.952 357.854 442.984C359.61 439.373 361.685 435.825 363.984 432.405C365.676 432.405 367.368 432.373 369.059 432.373C366.825 435.793 364.846 439.341 363.154 442.92ZM457.008 370.116C452.252 372.098 447.559 374.143 443.058 376.189C441.781 376.157 440.472 376.125 439.195 376.093C443.728 374.015 448.453 371.97 453.273 369.988C454.518 370.02 455.763 370.084 457.008 370.116ZM376.402 422.594C374.774 422.594 373.146 422.594 371.518 422.594C374.199 419.494 377.168 416.426 380.328 413.453C381.893 413.453 383.457 413.453 385.021 413.485C381.925 416.426 379.02 419.494 376.402 422.594ZM429.81 382.676C425.468 384.914 421.254 387.247 417.296 389.612C415.923 389.58 414.518 389.548 413.146 389.548C417.168 387.183 421.446 384.85 425.819 382.612C427.128 382.612 428.469 382.644 429.81 382.676ZM394.79 404.952C393.289 404.952 391.789 404.92 390.289 404.92C393.353 402.523 396.609 400.126 399.993 397.825C400.408 397.538 400.823 397.25 401.27 396.962C402.707 396.994 404.143 396.994 405.612 397.026C405.197 397.314 404.782 397.601 404.367 397.889C401.015 400.19 397.791 402.555 394.79 404.952Z" fill="url(#paint4_linear_616_3704)"/>
                  <path d="M829.363 301.18C824.191 301.595 821.669 301.787 816.593 302.202C815.955 302.138 815.316 302.074 814.678 302.011C819.754 301.595 822.276 301.403 827.479 300.988C828.118 301.084 828.756 301.116 829.363 301.18Z" fill="url(#paint5_linear_616_3704)"/>
                  <rect x="-12.3789" y="465.893" width="1447.37" height="793.271" fill="url(#paint6_linear_616_3704)"/>
                  <rect x="1448" y="591.516" width="1448" height="347.516" transform="rotate(180 1448 591.516)" fill="url(#paint7_linear_616_3704)"/>
                  </g>
                  <defs>
                  <linearGradient id="paint0_linear_616_3704" x1="979.478" y1="511.556" x2="378.138" y2="1112.21" gradientUnits="userSpaceOnUse">
                  <stop stop-color="#696969"/>
                  <stop offset="0.0114" stop-color="#898989"/>
                  <stop offset="0.1674" stop-color="#5F5F5F"/>
                  <stop offset="0.3268" stop-color="#3D3D3D"/>
                  <stop offset="0.4882" stop-color="#222222"/>
                  <stop offset="0.6522" stop-color="#3B3B3B"/>
                  <stop offset="0.8206" stop-color="#212121"/>
                  <stop offset="1" stop-color="#3A3A3A"/>
                  </linearGradient>
                  <linearGradient id="paint1_linear_616_3704" x1="278.164" y1="722.812" x2="1365.45" y2="722.812" gradientUnits="userSpaceOnUse">
                  <stop stop-color="#333333"/>
                  <stop offset="0.1718" stop-color="#4A4A4B"/>
                  <stop offset="0.5353" stop-color="#838389"/>
                  <stop offset="1" stop-color="#D5D5E0"/>
                  </linearGradient>
                  <linearGradient id="paint2_linear_616_3704" x1="779.22" y1="295.179" x2="729.932" y2="595.262" gradientUnits="userSpaceOnUse">
                  <stop stop-color="#333333"/>
                  <stop offset="0.1484" stop-color="#4A4A4B"/>
                  <stop offset="0.4625" stop-color="#848489"/>
                  <stop offset="0.9136" stop-color="#E1E1EB"/>
                  <stop offset="1" stop-color="#F4F4FF"/>
                  </linearGradient>
                  <linearGradient id="paint3_linear_616_3704" x1="986.627" y1="328.399" x2="937.338" y2="628.482" gradientUnits="userSpaceOnUse">
                  <stop stop-color="#333333"/>
                  <stop offset="0.1484" stop-color="#4A4A4B"/>
                  <stop offset="0.4625" stop-color="#848489"/>
                  <stop offset="0.9136" stop-color="#E1E1EB"/>
                  <stop offset="1" stop-color="#F4F4FF"/>
                  </linearGradient>
                  <linearGradient id="paint4_linear_616_3704" x1="736.961" y1="287.391" x2="687.673" y2="587.475" gradientUnits="userSpaceOnUse">
                  <stop stop-color="#333333"/>
                  <stop offset="0.1484" stop-color="#4A4A4B"/>
                  <stop offset="0.4625" stop-color="#848489"/>
                  <stop offset="0.9136" stop-color="#E1E1EB"/>
                  <stop offset="1" stop-color="#F4F4FF"/>
                  </linearGradient>
                  <linearGradient id="paint5_linear_616_3704" x1="822.076" y1="301.372" x2="772.787" y2="601.459" gradientUnits="userSpaceOnUse">
                  <stop stop-color="#333333"/>
                  <stop offset="0.1484" stop-color="#4A4A4B"/>
                  <stop offset="0.4625" stop-color="#848489"/>
                  <stop offset="0.9136" stop-color="#E1E1EB"/>
                  <stop offset="1" stop-color="#F4F4FF"/>
                  </linearGradient>
                  <linearGradient id="paint6_linear_616_3704" x1="711.306" y1="384.946" x2="711.305" y2="2309.19" gradientUnits="userSpaceOnUse">
                  <stop offset="0.0657292" stop-color="#060606" stop-opacity="0"/>
                  <stop offset="0.239583" stop-color="#060606"/>
                  </linearGradient>
                  <linearGradient id="paint7_linear_616_3704" x1="2172" y1="559.944" x2="2172" y2="1399.03" gradientUnits="userSpaceOnUse">
                  <stop offset="0.0760432" stop-color="#060606" stop-opacity="0"/>
                  <stop offset="0.3817" stop-color="#060606"/>
                  </linearGradient>
                  <clipPath id="clip0_616_3704">
                  <rect width="1448" height="1058" fill="white"/>
                  </clipPath>
                  </defs>
                  </svg>