<svg width="594" height="614" viewBox="0 0 594 614" fill="none" xmlns="http://www.w3.org/2000/svg">
<path fill-rule="evenodd" clip-rule="evenodd" d="M270.109 295.728C274.585 277.802 311.76 317.513 337.864 318.153C320.376 309.201 264.993 316.234 270.109 295.728Z" fill="#A8AEB0"/>
<path fill-rule="evenodd" clip-rule="evenodd" d="M259.283 439.53C245.16 436.703 239.798 434.504 233.359 430.51L284.916 317.367L259.283 439.53Z" fill="#B9BCBF"/>
<path fill-rule="evenodd" clip-rule="evenodd" d="M170.18 429.063C148.518 412.573 162.07 430.039 155.743 422.546L284.748 306.632L170.18 429.063Z" fill="#B9BCBF"/>
<path fill-rule="evenodd" clip-rule="evenodd" d="M235.042 73.4686C288.618 59.794 290.794 256.948 295.551 291.241C277.524 245.102 174.32 88.9716 235.042 73.4686Z" fill="#B9BCBF"/>
<path fill-rule="evenodd" clip-rule="evenodd" d="M344.449 125.386C371.596 128.493 363.06 127.607 386.842 140.395L296.886 334.341L344.449 125.386Z" fill="#B9BCBF"/>
<path fill-rule="evenodd" clip-rule="evenodd" d="M119.946 394.927C116.02 391.046 117.12 394.927 112.666 382.576L255.996 319.296L119.946 394.927Z" fill="#B9BCBF"/>
<path fill-rule="evenodd" clip-rule="evenodd" d="M89.6694 540.221C60.3347 515.306 35.3638 484.57 16.7422 448.863L287.676 307.249L89.6694 540.221Z" fill="#C4B99E"/>
<path fill-rule="evenodd" clip-rule="evenodd" d="M9.87716 380.894C-22.8116 257.15 30.1254 137.849 131.075 74.479L287.665 307.249L9.87716 380.894Z" fill="#A93C14"/>
<path fill-rule="evenodd" clip-rule="evenodd" d="M119.24 51.3024C136.796 39.7256 155.799 29.7642 176.148 21.7659C219.292 4.80448 263.972 -1.657 307.386 1.09137L287.676 307.249L119.24 51.3024Z" fill="#53903E"/>
<path fill-rule="evenodd" clip-rule="evenodd" d="M304.962 38.6489C339.222 40.814 372.572 49.5302 403.231 64.0461L287.664 307.249L304.962 38.6489Z" fill="#96C132"/>
<path fill-rule="evenodd" clip-rule="evenodd" d="M50.104 431.43C45.6954 422.994 41.6794 414.244 38.1233 405.192C34.2644 395.365 31.0449 385.459 28.3975 375.487L287.676 307.26L50.104 431.43Z" fill="#F846E6"/>
<path fill-rule="evenodd" clip-rule="evenodd" d="M525.539 432.866C511.214 459.879 492.278 484.525 469.293 505.502L287.676 307.249L525.539 432.866Z" fill="#DBFF00"/>
<path fill-rule="evenodd" clip-rule="evenodd" d="M265.33 505.951C225.899 501.374 188.555 485.153 158.312 459.453L287.676 307.249L265.33 505.951Z" fill="#D79225"/>
<path fill-rule="evenodd" clip-rule="evenodd" d="M459.948 399.268C460.363 399.067 455.842 397.361 450.144 394.658L351.629 340.139L351.27 339.758H351.359L459.948 399.268Z" fill="#306164"/>
<path fill-rule="evenodd" clip-rule="evenodd" d="M573.327 194.813C584.713 223.788 591.365 253.437 593.687 282.951L287.676 307.26L419.373 30.0786C487.331 62.2514 543.656 119.339 573.327 194.813Z" fill="#F2D100"/>
<path fill-rule="evenodd" clip-rule="evenodd" d="M508.05 289.749C511.348 332.006 502.273 373.815 482.877 410.34L287.665 307.248L508.05 289.749Z" fill="#D4670E"/>
<path fill-rule="evenodd" clip-rule="evenodd" d="M502.06 360.488L288.809 307.17L508.05 289.76L508.129 290.837L508.241 292.553C509.755 315.617 507.579 338.524 502.06 360.488Z" fill="url(#paint0_linear_1514_81)"/>
<path fill-rule="evenodd" clip-rule="evenodd" d="M593.665 282.951L510.058 298.644L288.865 307.159L593.665 282.951ZM287.687 307.226H287.642L288.461 305.577L287.687 307.226Z" fill="#DA9500"/>
<path fill-rule="evenodd" clip-rule="evenodd" d="M482.855 410.33L451.759 398.406L287.631 307.283H287.732L482.855 410.33Z" fill="#9D521C"/>
<path fill-rule="evenodd" clip-rule="evenodd" d="M445.477 480.587C445.388 481.047 442.583 477.11 438.511 472.286L336.159 360.904L335.699 360.657L335.733 360.747L445.477 480.587Z" fill="#306164"/>
<path fill-rule="evenodd" clip-rule="evenodd" d="M234.077 499.781L287.418 308.921L287.519 308.595L265.33 505.951C254.729 504.728 244.274 502.653 234.077 499.781Z" fill="url(#paint1_linear_1514_81)"/>
<path fill-rule="evenodd" clip-rule="evenodd" d="M488.038 539.122C462.427 561.165 432.711 579.327 399.439 592.295L399.114 592.418C401.974 591.308 404.824 590.152 407.673 588.941C437.67 576.22 464.592 559.27 488.026 539.1L488.038 539.122ZM254.258 611.657L260.596 505.581L287.44 309.157L287.508 308.719L287.451 309.201L254.258 611.657ZM287.698 307.351L287.709 307.272L288.809 308.484L289.044 308.753L288.798 308.484L287.698 307.351Z" fill="#63130B"/>
<path fill-rule="evenodd" clip-rule="evenodd" d="M158.614 458.555L287.238 307.787L287.474 307.529L184.382 477.289C175.284 471.725 166.669 465.443 158.614 458.555Z" fill="url(#paint2_linear_1514_81)"/>
<path fill-rule="evenodd" clip-rule="evenodd" d="M162.339 463.233L89.4565 539.66L286.655 307.653L162.339 463.233ZM286.419 307.911L287.653 307.215L287.586 307.305L286.419 307.911Z" fill="#99896B"/>
<path fill-rule="evenodd" clip-rule="evenodd" d="M9.87698 380.894C8.75519 376.744 2.87704 342.596 1.58699 335.013C0.353027 327.755 8.01481 342.114 17.2359 341.082L265.79 298.555L287.126 307.395L9.87698 380.894Z" fill="url(#paint3_linear_1514_81)"/>
<path fill-rule="evenodd" clip-rule="evenodd" d="M102.514 354.543C102.357 354.981 106.81 353.141 112.823 351.212L221.995 323.649L222.523 323.683L222.455 323.75L102.514 354.543Z" fill="#98571D"/>
<path fill-rule="evenodd" clip-rule="evenodd" d="M30.5403 374.927L83.1295 356.754L287.272 307.362L30.5403 374.927ZM287.597 307.294L287.676 307.283L287.541 307.328L287.597 307.294Z" fill="#3B2B16"/>
<path fill-rule="evenodd" clip-rule="evenodd" d="M129.268 75.9043C125.533 78.5405 118.757 83.0276 113.047 88.7487C109.682 92.1253 105.52 95.0532 111.342 100.628L276.671 304.255L286.038 304.636L286.464 304.939L286.453 304.849L129.268 75.9043Z" fill="url(#paint4_linear_1514_81)"/>
<path fill-rule="evenodd" clip-rule="evenodd" d="M132.802 89.342L119.262 51.3472L287.306 306.71L132.802 89.342ZM287.777 305.667L287.732 307.293L287.676 307.215L287.777 305.667Z" fill="#1C3B39"/>
<path fill-rule="evenodd" clip-rule="evenodd" d="M288.461 305.589L375.164 52.6382C384.733 55.9138 394.1 59.7166 403.231 64.0467L288.461 305.589Z" fill="url(#paint5_linear_1514_81)"/>
<path fill-rule="evenodd" clip-rule="evenodd" d="M322.171 40.2984L287.777 305.623L304.514 38.6606C310.28 39.0196 316.461 39.5693 322.171 40.2984Z" fill="url(#paint6_linear_1514_81)"/>
<path fill-rule="evenodd" clip-rule="evenodd" d="M419.373 30.0786L398.777 61.9485L288.842 305.275L419.373 30.0786ZM288.326 306.329L288.304 306.363L287.283 304.826L288.326 306.329Z" fill="#DA9500"/>
<path fill-rule="evenodd" clip-rule="evenodd" d="M494.712 533.243C467.845 557.765 436.144 577.901 400.28 592.002C351.954 610.994 301.72 616.839 253.495 611.286L287.676 307.26L494.712 533.243Z" fill="#8F2011"/>
<path fill-rule="evenodd" clip-rule="evenodd" d="M474.756 500.611L494.488 533.367L287.07 309.986L474.756 500.611ZM287.451 309.2L287.62 307.26L287.664 307.305L287.451 309.2Z" fill="#63130B"/>
<path fill-rule="evenodd" clip-rule="evenodd" d="M53.8106 73.5413C59.5088 65.2073 65.6851 57.2111 72.3613 49.6351C79.6089 41.4127 87.2345 33.9047 95.1958 27.0369L282.164 302.888L53.8106 73.5413Z" fill="#88BBF8"/>
<defs>
<linearGradient id="paint0_linear_1514_81" x1="398.071" y1="321.562" x2="399.22" y2="302.992" gradientUnits="userSpaceOnUse">
<stop stop-color="#D4670E"/>
<stop offset="0.2165" stop-color="#CD640E"/>
<stop offset="0.52" stop-color="#BB5B0D"/>
<stop offset="0.8733" stop-color="#9D4D0B"/>
<stop offset="1" stop-color="#91470A"/>
</linearGradient>
<linearGradient id="paint1_linear_1514_81" x1="261.388" y1="404.359" x2="277.967" y2="408.66" gradientUnits="userSpaceOnUse">
<stop stop-color="#D79225"/>
<stop offset="0.5675" stop-color="#BD771F"/>
<stop offset="1" stop-color="#A7601A"/>
</linearGradient>
<linearGradient id="paint2_linear_1514_81" x1="234.869" y1="391.854" x2="220.613" y2="382.04" gradientUnits="userSpaceOnUse">
<stop stop-color="#D79225"/>
<stop offset="1" stop-color="#A7601A"/>
</linearGradient>
<linearGradient id="paint3_linear_1514_81" x1="130.979" y1="242.955" x2="150.623" y2="357.892" gradientUnits="userSpaceOnUse">
<stop offset="0.1621" stop-color="#A93C14"/>
<stop offset="0.4445" stop-color="#A93C14"/>
<stop offset="0.491" stop-color="#A93C14"/>
<stop offset="0.678" stop-color="#A73B14"/>
<stop offset="0.7453" stop-color="#A03913"/>
<stop offset="0.7933" stop-color="#953512"/>
<stop offset="0.8321" stop-color="#842F11"/>
<stop offset="0.865" stop-color="#6E2710"/>
<stop offset="0.8734" stop-color="#67250F"/>
</linearGradient>
<linearGradient id="paint4_linear_1514_81" x1="189.306" y1="205.21" x2="213.13" y2="185.64" gradientUnits="userSpaceOnUse">
<stop stop-color="#A93C14"/>
<stop offset="0.245" stop-color="#A53B14"/>
<stop offset="0.4629" stop-color="#9B3713"/>
<stop offset="0.6704" stop-color="#883112"/>
<stop offset="0.8704" stop-color="#6F2810"/>
<stop offset="0.9236" stop-color="#67250F"/>
</linearGradient>
<linearGradient id="paint5_linear_1514_81" x1="359.705" y1="188.473" x2="332.308" y2="179.283" gradientUnits="userSpaceOnUse">
<stop stop-color="#698723"/>
<stop offset="1" stop-color="#96C132"/>
</linearGradient>
<linearGradient id="paint6_linear_1514_81" x1="291.855" y1="171.443" x2="303.553" y2="172.785" gradientUnits="userSpaceOnUse">
<stop stop-color="#698723"/>
<stop offset="1" stop-color="#96C132"/>
</linearGradient>
</defs>
</svg>
